<svg xmlns="http://www.w3.org/2000/svg" xmlns:xlink="http://www.w3.org/1999/xlink" id="general_1_" x="0" y="0" version="1.1" viewBox="0 0 600 600" style="enable-background:new 0 0 600 600" xml:space="preserve"><style type="text/css">.st0{fill:#ff0068}.st1{fill:#ff7300}</style><metadata><sfw xmlns="http://ns.adobe.com/SaveForWeb/1.0/"><slices/><sliceSourceBounds width="581.6" height="486.1" x="10.1" y="-581.5" bottomLeftOrigin="true"/></sfw></metadata><g id="general"><path d="M304.6,300.1c-10.2,8.3-24,46.8-28.7,60.5c-0.4-1.5-0.8-2.7-1.4-3.5c2-6.9,5-18.6,6-28.3 c1.6-14.8,11.7-59.1-3.9-72.4l-3.9,7c0,0,3.9,0.8,5.4,4.7c1.6,3.9,4.7,27.2,3.1,33.5c-1.2,4.8-7.1,39.3-9.7,54.4 c-9.3,2.8-30,48.2-31.7,51.9c-3.1,6.7-6.3,14.3-6.3,14.3c-5.5,13-8.9,22.4-9.9,25.1c-12.5,33.6-41.2,59.7-34.1,69 c1.9,2.5,5.5,2.7,6.3,2.7c12.8,0.6,16.4-24.5,42.1-62.7c5.8-8.7,12.4-17.4,21.5-33.2c5.6-9.7,8.5-14.6,10.8-20.6 c5.2-13.7,7.1-29.6,6-38.9c6.1-13.7,23.4-52,26.6-55.9c3.9-4.7,10.9-10.1,21-17.1s16.3-5.4,16.3-5.4v-7.8 C327.2,277.6,317,290,304.6,300.1z" class="st0"/><path d="M225.4,236.6c-24.7-65.1-79.7-181.8-148.2-126.8c-68.5,55-89.8,130.2-39.3,172.9 c50.5,42.7,111.1,80.8,141.5,94.3c18.6,8.3,39.7,16.1,53.2,20.9c-27.3,0.9-106.9,4-133.7,10.2c-32.5,7.5-56.5,17.5-58.5,37 s5,40,27,38c22-2,179.3-80.3,179.3-80.3S250.1,301.7,225.4,236.6z" class="st1"/><path d="M590.8,325.4c-7.6-87.5-130-46.5-194.1-19.4c-62.5,26.5-131.2,95.8-134.6,99.3l-0.1,0c0,0,0,0,0,0.1 c0,0,0,0,0,0s0,0,0.1,0c2.9,5.5,82.4,155.4,98.8,169.6c16.7,14.5,34.4,1.9,44.1-15.1s-3.9-39.1-26-64.2 c-15.6-17.7-64.1-56.3-91.3-77.4c11.7,5.7,26,12.3,39.5,17.9c30.7,12.6,100.2,30,165.9,37C558.8,480.3,598.4,412.9,590.8,325.4z" class="st1"/></g></svg>